<svg xmlns="http://www.w3.org/2000/svg" version="1.1" xmlns:xlink="http://www.w3.org/1999/xlink" xmlns:svgjs="http://svgjs.com/svgjs" width="1440" height="560" preserveAspectRatio="none" viewBox="0 0 1440 560"><g mask="url(&quot;#SvgjsMask1010&quot;)" fill="none"><path d="M-50.5 399.95L-50.5 399.95" stroke="#132e65" stroke-width="1.5"></path><path d="M-50.5 399.95L50.38 408.84" stroke="#132e65" stroke-width="1.5"></path><path d="M-50.5 399.95L58.43 499.4" stroke="#132e65" stroke-width="1.5"></path><path d="M-50.5 399.95L-102.93 539.46" stroke="#132e65" stroke-width="1.5"></path><path d="M-50.5 399.95L-85.71 701.94" stroke="#132e65" stroke-width="1.5"></path><path d="M-102.93 539.46L-102.93 539.46" stroke="#132e65" stroke-width="1.5"></path><path d="M-102.93 539.46L-85.71 701.94" stroke="#132e65" stroke-width="1.5"></path><path d="M-85.71 701.94L-85.71 701.94" stroke="#132e65" stroke-width="1.5"></path><path d="M50.38 408.84L50.38 408.84" stroke="#132e65" stroke-width="1.5"></path><path d="M50.38 408.84L58.43 499.4" stroke="#132e65" stroke-width="1.5"></path><path d="M58.43 499.4L58.43 499.4" stroke="#132e65" stroke-width="1.5"></path><path d="M58.43 499.4L-102.93 539.46" stroke="#132e65" stroke-width="1.5"></path><path d="M254.13 379.5L254.13 379.5" stroke="#132e65" stroke-width="1.5"></path><path d="M254.13 379.5L401.87 398.89" stroke="#132e65" stroke-width="1.5"></path><path d="M254.13 379.5L387.7 508.68" stroke="#132e65" stroke-width="1.5"></path><path d="M254.13 379.5L50.38 408.84" stroke="#132e65" stroke-width="1.5"></path><path d="M254.13 379.5L58.43 499.4" stroke="#132e65" stroke-width="1.5"></path><path d="M254.13 379.5L534.78 349.22" stroke="#132e65" stroke-width="1.5"></path><path d="M254.13 379.5L205.03 669.55" stroke="#132e65" stroke-width="1.5"></path><path d="M205.03 669.55L205.03 669.55" stroke="#132e65" stroke-width="1.5"></path><path d="M205.03 669.55L58.43 499.4" stroke="#132e65" stroke-width="1.5"></path><path d="M205.03 669.55L387.7 508.68" stroke="#132e65" stroke-width="1.5"></path><path d="M205.03 669.55L-85.71 701.94" stroke="#132e65" stroke-width="1.5"></path><path d="M205.03 669.55L50.38 408.84" stroke="#132e65" stroke-width="1.5"></path><path d="M205.03 669.55L530.75 690.01" stroke="#132e65" stroke-width="1.5"></path><path d="M401.87 398.89L401.87 398.89" stroke="#132e65" stroke-width="1.5"></path><path d="M401.87 398.89L387.7 508.68" stroke="#132e65" stroke-width="1.5"></path><path d="M401.87 398.89L534.78 349.22" stroke="#132e65" stroke-width="1.5"></path><path d="M401.87 398.89L551.04 496.97" stroke="#132e65" stroke-width="1.5"></path><path d="M401.87 398.89L711.58 359.18" stroke="#132e65" stroke-width="1.5"></path><path d="M387.7 508.68L387.7 508.68" stroke="#132e65" stroke-width="1.5"></path><path d="M387.7 508.68L551.04 496.97" stroke="#132e65" stroke-width="1.5"></path><path d="M387.7 508.68L534.78 349.22" stroke="#132e65" stroke-width="1.5"></path><path d="M534.78 349.22L534.78 349.22" stroke="#132e65" stroke-width="1.5"></path><path d="M534.78 349.22L551.04 496.97" stroke="#132e65" stroke-width="1.5"></path><path d="M534.78 349.22L711.58 359.18" stroke="#132e65" stroke-width="1.5"></path><path d="M551.04 496.97L551.04 496.97" stroke="#132e65" stroke-width="1.5"></path><path d="M530.75 690.01L530.75 690.01" stroke="#132e65" stroke-width="1.5"></path><path d="M530.75 690.01L662.89 648.81" stroke="#132e65" stroke-width="1.5"></path><path d="M530.75 690.01L551.04 496.97" stroke="#132e65" stroke-width="1.5"></path><path d="M530.75 690.01L693.17 557.03" stroke="#132e65" stroke-width="1.5"></path><path d="M530.75 690.01L387.7 508.68" stroke="#132e65" stroke-width="1.5"></path><path d="M530.75 690.01L803.35 640.02" stroke="#132e65" stroke-width="1.5"></path><path d="M711.58 359.18L711.58 359.18" stroke="#132e65" stroke-width="1.5"></path><path d="M693.17 557.03L693.17 557.03" stroke="#132e65" stroke-width="1.5"></path><path d="M693.17 557.03L662.89 648.81" stroke="#132e65" stroke-width="1.5"></path><path d="M693.17 557.03L822.59 533.72" stroke="#132e65" stroke-width="1.5"></path><path d="M693.17 557.03L803.35 640.02" stroke="#132e65" stroke-width="1.5"></path><path d="M693.17 557.03L551.04 496.97" stroke="#132e65" stroke-width="1.5"></path><path d="M693.17 557.03L711.58 359.18" stroke="#132e65" stroke-width="1.5"></path><path d="M662.89 648.81L662.89 648.81" stroke="#132e65" stroke-width="1.5"></path><path d="M662.89 648.81L803.35 640.02" stroke="#132e65" stroke-width="1.5"></path><path d="M662.89 648.81L551.04 496.97" stroke="#132e65" stroke-width="1.5"></path><path d="M662.89 648.81L822.59 533.72" stroke="#132e65" stroke-width="1.5"></path><path d="M861.09 70.6L861.09 70.6" stroke="#132e65" stroke-width="1.5"></path><path d="M861.09 70.6L979.43 76.19" stroke="#132e65" stroke-width="1.5"></path><path d="M861.09 70.6L820.71 204.8" stroke="#132e65" stroke-width="1.5"></path><path d="M820.71 204.8L820.71 204.8" stroke="#132e65" stroke-width="1.5"></path><path d="M820.71 204.8L711.58 359.18" stroke="#132e65" stroke-width="1.5"></path><path d="M820.71 204.8L979.43 76.19" stroke="#132e65" stroke-width="1.5"></path><path d="M820.71 204.8L1011.93 385.66" stroke="#132e65" stroke-width="1.5"></path><path d="M820.71 204.8L981.81 -39.05" stroke="#132e65" stroke-width="1.5"></path><path d="M822.59 533.72L822.59 533.72" stroke="#132e65" stroke-width="1.5"></path><path d="M822.59 533.72L803.35 640.02" stroke="#132e65" stroke-width="1.5"></path><path d="M822.59 533.72L948.29 539.07" stroke="#132e65" stroke-width="1.5"></path><path d="M822.59 533.72L711.58 359.18" stroke="#132e65" stroke-width="1.5"></path><path d="M803.35 640.02L803.35 640.02" stroke="#132e65" stroke-width="1.5"></path><path d="M981.81 -39.05L981.81 -39.05" stroke="#132e65" stroke-width="1.5"></path><path d="M981.81 -39.05L979.43 76.19" stroke="#132e65" stroke-width="1.5"></path><path d="M979.43 76.19L979.43 76.19" stroke="#132e65" stroke-width="1.5"></path><path d="M979.43 76.19L1160.98 103.77" stroke="#132e65" stroke-width="1.5"></path><path d="M1011.93 385.66L1011.93 385.66" stroke="#132e65" stroke-width="1.5"></path><path d="M1011.93 385.66L1109.18 410.06" stroke="#132e65" stroke-width="1.5"></path><path d="M1011.93 385.66L948.29 539.07" stroke="#132e65" stroke-width="1.5"></path><path d="M1011.93 385.66L1148.38 529.9" stroke="#132e65" stroke-width="1.5"></path><path d="M948.29 539.07L948.29 539.07" stroke="#132e65" stroke-width="1.5"></path><path d="M948.29 539.07L987.49 671.45" stroke="#132e65" stroke-width="1.5"></path><path d="M987.49 671.45L987.49 671.45" stroke="#132e65" stroke-width="1.5"></path><path d="M987.49 671.45L1150.67 663.69" stroke="#132e65" stroke-width="1.5"></path><path d="M987.49 671.45L803.35 640.02" stroke="#132e65" stroke-width="1.5"></path><path d="M1107.85 -75.14L1107.85 -75.14" stroke="#132e65" stroke-width="1.5"></path><path d="M1107.85 -75.14L981.81 -39.05" stroke="#132e65" stroke-width="1.5"></path><path d="M1107.85 -75.14L1290.61 -68.37" stroke="#132e65" stroke-width="1.5"></path><path d="M1107.85 -75.14L1160.98 103.77" stroke="#132e65" stroke-width="1.5"></path><path d="M1107.85 -75.14L979.43 76.19" stroke="#132e65" stroke-width="1.5"></path><path d="M1107.85 -75.14L1244.58 86.46" stroke="#132e65" stroke-width="1.5"></path><path d="M1107.85 -75.14L1135.66 204.08" stroke="#132e65" stroke-width="1.5"></path><path d="M1160.98 103.77L1160.98 103.77" stroke="#132e65" stroke-width="1.5"></path><path d="M1160.98 103.77L1244.58 86.46" stroke="#132e65" stroke-width="1.5"></path><path d="M1160.98 103.77L1135.66 204.08" stroke="#132e65" stroke-width="1.5"></path><path d="M1160.98 103.77L1308.05 260.51" stroke="#132e65" stroke-width="1.5"></path><path d="M1135.66 204.08L1135.66 204.08" stroke="#132e65" stroke-width="1.5"></path><path d="M1135.66 204.08L1244.58 86.46" stroke="#132e65" stroke-width="1.5"></path><path d="M1135.66 204.08L1308.05 260.51" stroke="#132e65" stroke-width="1.5"></path><path d="M1135.66 204.08L979.43 76.19" stroke="#132e65" stroke-width="1.5"></path><path d="M1109.18 410.06L1109.18 410.06" stroke="#132e65" stroke-width="1.5"></path><path d="M1109.18 410.06L1148.38 529.9" stroke="#132e65" stroke-width="1.5"></path><path d="M1109.18 410.06L1255.63 489.53" stroke="#132e65" stroke-width="1.5"></path><path d="M1109.18 410.06L948.29 539.07" stroke="#132e65" stroke-width="1.5"></path><path d="M1109.18 410.06L1135.66 204.08" stroke="#132e65" stroke-width="1.5"></path><path d="M1109.18 410.06L1308.05 260.51" stroke="#132e65" stroke-width="1.5"></path><path d="M1148.38 529.9L1148.38 529.9" stroke="#132e65" stroke-width="1.5"></path><path d="M1148.38 529.9L1255.63 489.53" stroke="#132e65" stroke-width="1.5"></path><path d="M1150.67 663.69L1150.67 663.69" stroke="#132e65" stroke-width="1.5"></path><path d="M1150.67 663.69L1148.38 529.9" stroke="#132e65" stroke-width="1.5"></path><path d="M1150.67 663.69L1306.24 641.05" stroke="#132e65" stroke-width="1.5"></path><path d="M1150.67 663.69L1255.63 489.53" stroke="#132e65" stroke-width="1.5"></path><path d="M1290.61 -68.37L1290.61 -68.37" stroke="#132e65" stroke-width="1.5"></path><path d="M1290.61 -68.37L1420.12 -67.42" stroke="#132e65" stroke-width="1.5"></path><path d="M1290.61 -68.37L1244.58 86.46" stroke="#132e65" stroke-width="1.5"></path><path d="M1290.61 -68.37L1160.98 103.77" stroke="#132e65" stroke-width="1.5"></path><path d="M1290.61 -68.37L1461.51 81.76" stroke="#132e65" stroke-width="1.5"></path><path d="M1244.58 86.46L1244.58 86.46" stroke="#132e65" stroke-width="1.5"></path><path d="M1244.58 86.46L1308.05 260.51" stroke="#132e65" stroke-width="1.5"></path><path d="M1244.58 86.46L1461.51 81.76" stroke="#132e65" stroke-width="1.5"></path><path d="M1308.05 260.51L1308.05 260.51" stroke="#132e65" stroke-width="1.5"></path><path d="M1308.05 260.51L1450.84 339.58" stroke="#132e65" stroke-width="1.5"></path><path d="M1308.05 260.51L1459.85 190.64" stroke="#132e65" stroke-width="1.5"></path><path d="M1255.63 489.53L1255.63 489.53" stroke="#132e65" stroke-width="1.5"></path><path d="M1255.63 489.53L1306.24 641.05" stroke="#132e65" stroke-width="1.5"></path><path d="M1306.24 641.05L1306.24 641.05" stroke="#132e65" stroke-width="1.5"></path><path d="M1306.24 641.05L1428.01 637.93" stroke="#132e65" stroke-width="1.5"></path><path d="M1420.12 -67.42L1420.12 -67.42" stroke="#132e65" stroke-width="1.5"></path><path d="M1420.12 -67.42L1560.74 -77.9" stroke="#132e65" stroke-width="1.5"></path><path d="M1461.51 81.76L1461.51 81.76" stroke="#132e65" stroke-width="1.5"></path><path d="M1461.51 81.76L1459.85 190.64" stroke="#132e65" stroke-width="1.5"></path><path d="M1461.51 81.76L1579.69 68.83" stroke="#132e65" stroke-width="1.5"></path><path d="M1459.85 190.64L1459.85 190.64" stroke="#132e65" stroke-width="1.5"></path><path d="M1459.85 190.64L1578.08 213.61" stroke="#132e65" stroke-width="1.5"></path><path d="M1459.85 190.64L1450.84 339.58" stroke="#132e65" stroke-width="1.5"></path><path d="M1459.85 190.64L1579.69 68.83" stroke="#132e65" stroke-width="1.5"></path><path d="M1450.84 339.58L1450.84 339.58" stroke="#132e65" stroke-width="1.5"></path><path d="M1450.84 339.58L1585.75 359.43" stroke="#132e65" stroke-width="1.5"></path><path d="M1450.84 339.58L1445.25 517.33" stroke="#132e65" stroke-width="1.5"></path><path d="M1450.84 339.58L1578.08 213.61" stroke="#132e65" stroke-width="1.5"></path><path d="M1445.25 517.33L1445.25 517.33" stroke="#132e65" stroke-width="1.5"></path><path d="M1445.25 517.33L1428.01 637.93" stroke="#132e65" stroke-width="1.5"></path><path d="M1445.25 517.33L1605.95 545.5" stroke="#132e65" stroke-width="1.5"></path><path d="M1428.01 637.93L1428.01 637.93" stroke="#132e65" stroke-width="1.5"></path><path d="M1428.01 637.93L1544.61 653.38" stroke="#132e65" stroke-width="1.5"></path><path d="M1560.74 -77.9L1560.74 -77.9" stroke="#132e65" stroke-width="1.5"></path><path d="M1560.74 -77.9L1579.69 68.83" stroke="#132e65" stroke-width="1.5"></path><path d="M1560.74 -77.9L1461.51 81.76" stroke="#132e65" stroke-width="1.5"></path><path d="M1579.69 68.83L1579.69 68.83" stroke="#132e65" stroke-width="1.5"></path><path d="M1579.69 68.83L1578.08 213.61" stroke="#132e65" stroke-width="1.5"></path><path d="M1578.08 213.61L1578.08 213.61" stroke="#132e65" stroke-width="1.5"></path><path d="M1578.08 213.61L1585.75 359.43" stroke="#132e65" stroke-width="1.5"></path><path d="M1578.08 213.61L1461.51 81.76" stroke="#132e65" stroke-width="1.5"></path><path d="M1585.75 359.43L1585.75 359.43" stroke="#132e65" stroke-width="1.5"></path><path d="M1585.75 359.43L1605.95 545.5" stroke="#132e65" stroke-width="1.5"></path><path d="M1605.95 545.5L1605.95 545.5" stroke="#132e65" stroke-width="1.5"></path><path d="M1605.95 545.5L1544.61 653.38" stroke="#132e65" stroke-width="1.5"></path><path d="M1605.95 545.5L1428.01 637.93" stroke="#132e65" stroke-width="1.5"></path><path d="M1544.61 653.38L1544.61 653.38" stroke="#132e65" stroke-width="1.5"></path><path d="M1544.61 653.38L1445.25 517.33" stroke="#132e65" stroke-width="1.5"></path><path d="M1544.61 653.38L1306.24 641.05" stroke="#132e65" stroke-width="1.5"></path><circle r="5" cx="-50.5" cy="399.95" fill="#132e65"></circle><circle r="5" cx="-102.93" cy="539.46" fill="#132e65"></circle><circle r="5" cx="-85.71" cy="701.94" fill="#132e65"></circle><circle r="5" cx="50.38" cy="408.84" fill="#132e65"></circle><circle r="5" cx="58.43" cy="499.4" fill="#132e65"></circle><circle r="5" cx="254.13" cy="379.5" fill="#132e65"></circle><circle r="5" cx="205.03" cy="669.55" fill="#132e65"></circle><circle r="5" cx="401.87" cy="398.89" fill="#132e65"></circle><circle r="5" cx="387.7" cy="508.68" fill="#132e65"></circle><circle r="5" cx="534.78" cy="349.22" fill="#132e65"></circle><circle r="5" cx="551.04" cy="496.97" fill="#132e65"></circle><circle r="5" cx="530.75" cy="690.01" fill="#132e65"></circle><circle r="5" cx="711.58" cy="359.18" fill="#132e65"></circle><circle r="5" cx="693.17" cy="557.03" fill="#132e65"></circle><circle r="5" cx="662.89" cy="648.81" fill="#132e65"></circle><circle r="5" cx="861.09" cy="70.6" fill="#132e65"></circle><circle r="5" cx="820.71" cy="204.8" fill="#132e65"></circle><circle r="5" cx="822.59" cy="533.72" fill="#132e65"></circle><circle r="5" cx="803.35" cy="640.02" fill="#132e65"></circle><circle r="5" cx="981.81" cy="-39.05" fill="#132e65"></circle><circle r="5" cx="979.43" cy="76.19" fill="#132e65"></circle><circle r="5" cx="1011.93" cy="385.66" fill="#132e65"></circle><circle r="5" cx="948.29" cy="539.07" fill="#132e65"></circle><circle r="5" cx="987.49" cy="671.45" fill="#132e65"></circle><circle r="5" cx="1107.85" cy="-75.14" fill="#132e65"></circle><circle r="5" cx="1160.98" cy="103.77" fill="#132e65"></circle><circle r="5" cx="1135.66" cy="204.08" fill="#132e65"></circle><circle r="5" cx="1109.18" cy="410.06" fill="#132e65"></circle><circle r="5" cx="1148.38" cy="529.9" fill="#132e65"></circle><circle r="5" cx="1150.67" cy="663.69" fill="#132e65"></circle><circle r="5" cx="1290.61" cy="-68.37" fill="#132e65"></circle><circle r="5" cx="1244.58" cy="86.46" fill="#132e65"></circle><circle r="5" cx="1308.05" cy="260.51" fill="#132e65"></circle><circle r="5" cx="1255.63" cy="489.53" fill="#132e65"></circle><circle r="5" cx="1306.24" cy="641.05" fill="#132e65"></circle><circle r="5" cx="1420.12" cy="-67.42" fill="#132e65"></circle><circle r="5" cx="1461.51" cy="81.76" fill="#132e65"></circle><circle r="5" cx="1459.85" cy="190.64" fill="#132e65"></circle><circle r="5" cx="1450.84" cy="339.58" fill="#132e65"></circle><circle r="5" cx="1445.25" cy="517.33" fill="#132e65"></circle><circle r="5" cx="1428.01" cy="637.93" fill="#132e65"></circle><circle r="5" cx="1560.74" cy="-77.9" fill="#132e65"></circle><circle r="5" cx="1579.69" cy="68.83" fill="#132e65"></circle><circle r="5" cx="1578.08" cy="213.61" fill="#132e65"></circle><circle r="5" cx="1585.75" cy="359.43" fill="#132e65"></circle><circle r="5" cx="1605.95" cy="545.5" fill="#132e65"></circle><circle r="5" cx="1544.61" cy="653.38" fill="#132e65"></circle><path d="M-75.03 491.82L-75.03 491.82" stroke="hsl(228.5, 77.2%, 51.5%)" stroke-width="1.5"></path><path d="M-75.03 491.82L69.89 537.17" stroke="hsl(228.5, 77.2%, 51.5%)" stroke-width="1.5"></path><path d="M-75.03 491.82L-83.12 671.69" stroke="hsl(228.5, 77.2%, 51.5%)" stroke-width="1.5"></path><path d="M677.47 533.22L677.47 533.22" stroke="hsl(228.5, 77.2%, 51.5%)" stroke-width="1.5"></path><path d="M677.47 533.22L532.61 558.96" stroke="hsl(228.5, 77.2%, 51.5%)" stroke-width="1.5"></path><path d="M677.47 533.22L699.43 681.66" stroke="hsl(228.5, 77.2%, 51.5%)" stroke-width="1.5"></path><path d="M831.14 512.49L831.14 512.49" stroke="hsl(228.5, 77.2%, 51.5%)" stroke-width="1.5"></path><path d="M831.14 512.49L822.16 411.43" stroke="hsl(228.5, 77.2%, 51.5%)" stroke-width="1.5"></path><path d="M831.14 512.49L819.47 642.95" stroke="hsl(228.5, 77.2%, 51.5%)" stroke-width="1.5"></path><path d="M1269.26 540L1269.26 540" stroke="hsl(228.5, 77.2%, 51.5%)" stroke-width="1.5"></path><path d="M1269.26 540L1289.68 678.6" stroke="hsl(228.5, 77.2%, 51.5%)" stroke-width="1.5"></path><path d="M1269.26 540L1115.18 497.37" stroke="hsl(228.5, 77.2%, 51.5%)" stroke-width="1.5"></path><path d="M1269.26 540L1390.49 686.79" stroke="hsl(228.5, 77.2%, 51.5%)" stroke-width="1.5"></path><path d="M1438.77 227.74L1438.77 227.74" stroke="hsl(228.5, 77.2%, 51.5%)" stroke-width="1.5"></path><path d="M1438.77 227.74L1599.14 241.81" stroke="hsl(228.5, 77.2%, 51.5%)" stroke-width="1.5"></path><path d="M1438.77 227.74L1461.57 398.02" stroke="hsl(228.5, 77.2%, 51.5%)" stroke-width="1.5"></path><path d="M1438.77 227.74L1299.56 89.52" stroke="hsl(228.5, 77.2%, 51.5%)" stroke-width="1.5"></path><path d="M1438.77 227.74L1548.36 406.51" stroke="hsl(228.5, 77.2%, 51.5%)" stroke-width="1.5"></path><path d="M1438.77 227.74L1558.25 45.83" stroke="hsl(228.5, 77.2%, 51.5%)" stroke-width="1.5"></path><path d="M1553.98 -108.56L1553.98 -108.56" stroke="hsl(228.5, 77.2%, 51.5%)" stroke-width="1.5"></path><path d="M1553.98 -108.56L1437.65 -81.84" stroke="hsl(228.5, 77.2%, 51.5%)" stroke-width="1.5"></path><path d="M1553.98 -108.56L1558.25 45.83" stroke="hsl(228.5, 77.2%, 51.5%)" stroke-width="1.5"></path><path d="M1553.98 -108.56L1305.01 -53.74" stroke="hsl(228.5, 77.2%, 51.5%)" stroke-width="1.5"></path><path d="M1558.25 45.83L1558.25 45.83" stroke="hsl(228.5, 77.2%, 51.5%)" stroke-width="1.5"></path><path d="M1558.25 45.83L1437.65 -81.84" stroke="hsl(228.5, 77.2%, 51.5%)" stroke-width="1.5"></path><path d="M1558.25 45.83L1599.14 241.81" stroke="hsl(228.5, 77.2%, 51.5%)" stroke-width="1.5"></path><path d="M1558.25 45.83L1299.56 89.52" stroke="hsl(228.5, 77.2%, 51.5%)" stroke-width="1.5"></path><path d="M1548.36 406.51L1548.36 406.51" stroke="hsl(228.5, 77.2%, 51.5%)" stroke-width="1.5"></path><path d="M1548.36 406.51L1461.57 398.02" stroke="hsl(228.5, 77.2%, 51.5%)" stroke-width="1.5"></path><path d="M1548.36 406.51L1543.86 562.48" stroke="hsl(228.5, 77.2%, 51.5%)" stroke-width="1.5"></path><path d="M1548.36 406.51L1599.14 241.81" stroke="hsl(228.5, 77.2%, 51.5%)" stroke-width="1.5"></path><path d="M1548.36 406.51L1462 555.7" stroke="hsl(228.5, 77.2%, 51.5%)" stroke-width="1.5"></path><path d="M1548.36 406.51L1581.78 712.22" stroke="hsl(228.5, 77.2%, 51.5%)" stroke-width="1.5"></path><path d="M1543.86 562.48L1543.86 562.48" stroke="hsl(228.5, 77.2%, 51.5%)" stroke-width="1.5"></path><path d="M1543.86 562.48L1462 555.7" stroke="hsl(228.5, 77.2%, 51.5%)" stroke-width="1.5"></path><path d="M1581.78 712.22L1581.78 712.22" stroke="hsl(228.5, 77.2%, 51.5%)" stroke-width="1.5"></path><path d="M1581.78 712.22L1543.86 562.48" stroke="hsl(228.5, 77.2%, 51.5%)" stroke-width="1.5"></path><path d="M1581.78 712.22L1390.49 686.79" stroke="hsl(228.5, 77.2%, 51.5%)" stroke-width="1.5"></path><path d="M-83.12 671.69L-83.12 671.69" stroke="hsl(228.5, 77.2%, 51.5%)" stroke-width="1.5"></path><path d="M-83.12 671.69L112.2 656.52" stroke="hsl(228.5, 77.2%, 51.5%)" stroke-width="1.5"></path><path d="M-83.12 671.69L69.89 537.17" stroke="hsl(228.5, 77.2%, 51.5%)" stroke-width="1.5"></path><path d="M69.89 537.17L69.89 537.17" stroke="hsl(228.5, 77.2%, 51.5%)" stroke-width="1.5"></path><path d="M69.89 537.17L112.2 656.52" stroke="hsl(228.5, 77.2%, 51.5%)" stroke-width="1.5"></path><path d="M112.2 656.52L112.2 656.52" stroke="hsl(228.5, 77.2%, 51.5%)" stroke-width="1.5"></path><path d="M112.2 656.52L233.7 699.47" stroke="hsl(228.5, 77.2%, 51.5%)" stroke-width="1.5"></path><path d="M112.2 656.52L251.02 509.78" stroke="hsl(228.5, 77.2%, 51.5%)" stroke-width="1.5"></path><path d="M251.02 509.78L251.02 509.78" stroke="hsl(228.5, 77.2%, 51.5%)" stroke-width="1.5"></path><path d="M251.02 509.78L371.71 531.97" stroke="hsl(228.5, 77.2%, 51.5%)" stroke-width="1.5"></path><path d="M251.02 509.78L69.89 537.17" stroke="hsl(228.5, 77.2%, 51.5%)" stroke-width="1.5"></path><path d="M233.7 699.47L233.7 699.47" stroke="hsl(228.5, 77.2%, 51.5%)" stroke-width="1.5"></path><path d="M233.7 699.47L251.02 509.78" stroke="hsl(228.5, 77.2%, 51.5%)" stroke-width="1.5"></path><path d="M233.7 699.47L371.71 531.97" stroke="hsl(228.5, 77.2%, 51.5%)" stroke-width="1.5"></path><path d="M233.7 699.47L69.89 537.17" stroke="hsl(228.5, 77.2%, 51.5%)" stroke-width="1.5"></path><path d="M233.7 699.47L503.16 642.61" stroke="hsl(228.5, 77.2%, 51.5%)" stroke-width="1.5"></path><path d="M233.7 699.47L-83.12 671.69" stroke="hsl(228.5, 77.2%, 51.5%)" stroke-width="1.5"></path><path d="M371.71 531.97L371.71 531.97" stroke="hsl(228.5, 77.2%, 51.5%)" stroke-width="1.5"></path><path d="M371.71 531.97L532.61 558.96" stroke="hsl(228.5, 77.2%, 51.5%)" stroke-width="1.5"></path><path d="M371.71 531.97L503.16 642.61" stroke="hsl(228.5, 77.2%, 51.5%)" stroke-width="1.5"></path><path d="M371.71 531.97L112.2 656.52" stroke="hsl(228.5, 77.2%, 51.5%)" stroke-width="1.5"></path><path d="M532.61 558.96L532.61 558.96" stroke="hsl(228.5, 77.2%, 51.5%)" stroke-width="1.5"></path><path d="M532.61 558.96L503.16 642.61" stroke="hsl(228.5, 77.2%, 51.5%)" stroke-width="1.5"></path><path d="M503.16 642.61L503.16 642.61" stroke="hsl(228.5, 77.2%, 51.5%)" stroke-width="1.5"></path><path d="M503.16 642.61L699.43 681.66" stroke="hsl(228.5, 77.2%, 51.5%)" stroke-width="1.5"></path><path d="M709.56 364.08L709.56 364.08" stroke="hsl(228.5, 77.2%, 51.5%)" stroke-width="1.5"></path><path d="M709.56 364.08L822.16 411.43" stroke="hsl(228.5, 77.2%, 51.5%)" stroke-width="1.5"></path><path d="M709.56 364.08L677.47 533.22" stroke="hsl(228.5, 77.2%, 51.5%)" stroke-width="1.5"></path><path d="M709.56 364.08L831.14 512.49" stroke="hsl(228.5, 77.2%, 51.5%)" stroke-width="1.5"></path><path d="M709.56 364.08L937.54 382.61" stroke="hsl(228.5, 77.2%, 51.5%)" stroke-width="1.5"></path><path d="M709.56 364.08L532.61 558.96" stroke="hsl(228.5, 77.2%, 51.5%)" stroke-width="1.5"></path><path d="M699.43 681.66L699.43 681.66" stroke="hsl(228.5, 77.2%, 51.5%)" stroke-width="1.5"></path><path d="M699.43 681.66L819.47 642.95" stroke="hsl(228.5, 77.2%, 51.5%)" stroke-width="1.5"></path><path d="M822.16 411.43L822.16 411.43" stroke="hsl(228.5, 77.2%, 51.5%)" stroke-width="1.5"></path><path d="M822.16 411.43L937.54 382.61" stroke="hsl(228.5, 77.2%, 51.5%)" stroke-width="1.5"></path><path d="M822.16 411.43L677.47 533.22" stroke="hsl(228.5, 77.2%, 51.5%)" stroke-width="1.5"></path><path d="M822.16 411.43L990.5 505.93" stroke="hsl(228.5, 77.2%, 51.5%)" stroke-width="1.5"></path><path d="M822.16 411.43L819.47 642.95" stroke="hsl(228.5, 77.2%, 51.5%)" stroke-width="1.5"></path><path d="M819.47 642.95L819.47 642.95" stroke="hsl(228.5, 77.2%, 51.5%)" stroke-width="1.5"></path><path d="M819.47 642.95L975.61 694.31" stroke="hsl(228.5, 77.2%, 51.5%)" stroke-width="1.5"></path><path d="M819.47 642.95L677.47 533.22" stroke="hsl(228.5, 77.2%, 51.5%)" stroke-width="1.5"></path><path d="M937.54 382.61L937.54 382.61" stroke="hsl(228.5, 77.2%, 51.5%)" stroke-width="1.5"></path><path d="M937.54 382.61L990.5 505.93" stroke="hsl(228.5, 77.2%, 51.5%)" stroke-width="1.5"></path><path d="M937.54 382.61L1094.29 368.92" stroke="hsl(228.5, 77.2%, 51.5%)" stroke-width="1.5"></path><path d="M937.54 382.61L831.14 512.49" stroke="hsl(228.5, 77.2%, 51.5%)" stroke-width="1.5"></path><path d="M990.5 505.93L990.5 505.93" stroke="hsl(228.5, 77.2%, 51.5%)" stroke-width="1.5"></path><path d="M990.5 505.93L1115.18 497.37" stroke="hsl(228.5, 77.2%, 51.5%)" stroke-width="1.5"></path><path d="M990.5 505.93L831.14 512.49" stroke="hsl(228.5, 77.2%, 51.5%)" stroke-width="1.5"></path><path d="M990.5 505.93L1094.29 368.92" stroke="hsl(228.5, 77.2%, 51.5%)" stroke-width="1.5"></path><path d="M990.5 505.93L975.61 694.31" stroke="hsl(228.5, 77.2%, 51.5%)" stroke-width="1.5"></path><path d="M975.61 694.31L975.61 694.31" stroke="hsl(228.5, 77.2%, 51.5%)" stroke-width="1.5"></path><path d="M975.61 694.31L1114.18 689.35" stroke="hsl(228.5, 77.2%, 51.5%)" stroke-width="1.5"></path><path d="M1127.45 258.89L1127.45 258.89" stroke="hsl(228.5, 77.2%, 51.5%)" stroke-width="1.5"></path><path d="M1127.45 258.89L1094.29 368.92" stroke="hsl(228.5, 77.2%, 51.5%)" stroke-width="1.5"></path><path d="M1127.45 258.89L937.54 382.61" stroke="hsl(228.5, 77.2%, 51.5%)" stroke-width="1.5"></path><path d="M1127.45 258.89L1115.18 497.37" stroke="hsl(228.5, 77.2%, 51.5%)" stroke-width="1.5"></path><path d="M1094.29 368.92L1094.29 368.92" stroke="hsl(228.5, 77.2%, 51.5%)" stroke-width="1.5"></path><path d="M1094.29 368.92L1115.18 497.37" stroke="hsl(228.5, 77.2%, 51.5%)" stroke-width="1.5"></path><path d="M1115.18 497.37L1115.18 497.37" stroke="hsl(228.5, 77.2%, 51.5%)" stroke-width="1.5"></path><path d="M1115.18 497.37L1114.18 689.35" stroke="hsl(228.5, 77.2%, 51.5%)" stroke-width="1.5"></path><path d="M1115.18 497.37L937.54 382.61" stroke="hsl(228.5, 77.2%, 51.5%)" stroke-width="1.5"></path><path d="M1114.18 689.35L1114.18 689.35" stroke="hsl(228.5, 77.2%, 51.5%)" stroke-width="1.5"></path><path d="M1114.18 689.35L1289.68 678.6" stroke="hsl(228.5, 77.2%, 51.5%)" stroke-width="1.5"></path><path d="M1305.01 -53.74L1305.01 -53.74" stroke="hsl(228.5, 77.2%, 51.5%)" stroke-width="1.5"></path><path d="M1305.01 -53.74L1437.65 -81.84" stroke="hsl(228.5, 77.2%, 51.5%)" stroke-width="1.5"></path><path d="M1305.01 -53.74L1299.56 89.52" stroke="hsl(228.5, 77.2%, 51.5%)" stroke-width="1.5"></path><path d="M1305.01 -53.74L1558.25 45.83" stroke="hsl(228.5, 77.2%, 51.5%)" stroke-width="1.5"></path><path d="M1305.01 -53.74L1438.77 227.74" stroke="hsl(228.5, 77.2%, 51.5%)" stroke-width="1.5"></path><path d="M1299.56 89.52L1299.56 89.52" stroke="hsl(228.5, 77.2%, 51.5%)" stroke-width="1.5"></path><path d="M1299.56 89.52L1437.65 -81.84" stroke="hsl(228.5, 77.2%, 51.5%)" stroke-width="1.5"></path><path d="M1299.56 89.52L1127.45 258.89" stroke="hsl(228.5, 77.2%, 51.5%)" stroke-width="1.5"></path><path d="M1299.56 89.52L1553.98 -108.56" stroke="hsl(228.5, 77.2%, 51.5%)" stroke-width="1.5"></path><path d="M1289.68 678.6L1289.68 678.6" stroke="hsl(228.5, 77.2%, 51.5%)" stroke-width="1.5"></path><path d="M1289.68 678.6L1390.49 686.79" stroke="hsl(228.5, 77.2%, 51.5%)" stroke-width="1.5"></path><path d="M1289.68 678.6L1462 555.7" stroke="hsl(228.5, 77.2%, 51.5%)" stroke-width="1.5"></path><path d="M1289.68 678.6L1115.18 497.37" stroke="hsl(228.5, 77.2%, 51.5%)" stroke-width="1.5"></path><path d="M1289.68 678.6L1543.86 562.48" stroke="hsl(228.5, 77.2%, 51.5%)" stroke-width="1.5"></path><path d="M1437.65 -81.84L1437.65 -81.84" stroke="hsl(228.5, 77.2%, 51.5%)" stroke-width="1.5"></path><path d="M1461.57 398.02L1461.57 398.02" stroke="hsl(228.5, 77.2%, 51.5%)" stroke-width="1.5"></path><path d="M1461.57 398.02L1462 555.7" stroke="hsl(228.5, 77.2%, 51.5%)" stroke-width="1.5"></path><path d="M1462 555.7L1462 555.7" stroke="hsl(228.5, 77.2%, 51.5%)" stroke-width="1.5"></path><path d="M1462 555.7L1390.49 686.79" stroke="hsl(228.5, 77.2%, 51.5%)" stroke-width="1.5"></path><path d="M1462 555.7L1269.26 540" stroke="hsl(228.5, 77.2%, 51.5%)" stroke-width="1.5"></path><path d="M1462 555.7L1581.78 712.22" stroke="hsl(228.5, 77.2%, 51.5%)" stroke-width="1.5"></path><path d="M1390.49 686.79L1390.49 686.79" stroke="hsl(228.5, 77.2%, 51.5%)" stroke-width="1.5"></path><path d="M1390.49 686.79L1543.86 562.48" stroke="hsl(228.5, 77.2%, 51.5%)" stroke-width="1.5"></path><path d="M1599.14 241.81L1599.14 241.81" stroke="hsl(228.5, 77.2%, 51.5%)" stroke-width="1.5"></path><path d="M1599.14 241.81L1461.57 398.02" stroke="hsl(228.5, 77.2%, 51.5%)" stroke-width="1.5"></path><circle r="25" cx="-75.03" cy="491.82" fill="url(#SvgjsRadialGradient1011)"></circle><circle r="25" cx="677.47" cy="533.22" fill="url(#SvgjsRadialGradient1011)"></circle><circle r="25" cx="831.14" cy="512.49" fill="url(#SvgjsRadialGradient1011)"></circle><circle r="25" cx="1269.26" cy="540" fill="url(#SvgjsRadialGradient1011)"></circle><circle r="25" cx="1438.77" cy="227.74" fill="url(#SvgjsRadialGradient1011)"></circle><circle r="25" cx="1553.98" cy="-108.56" fill="url(#SvgjsRadialGradient1011)"></circle><circle r="25" cx="1558.25" cy="45.83" fill="url(#SvgjsRadialGradient1011)"></circle><circle r="25" cx="1548.36" cy="406.51" fill="url(#SvgjsRadialGradient1011)"></circle><circle r="25" cx="1543.86" cy="562.48" fill="url(#SvgjsRadialGradient1011)"></circle><circle r="25" cx="1581.78" cy="712.22" fill="url(#SvgjsRadialGradient1011)"></circle><circle r="5" cx="-83.12" cy="671.69" fill="#8b9ad9"></circle><circle r="5" cx="69.89" cy="537.17" fill="#8b9ad9"></circle><circle r="5" cx="112.2" cy="656.52" fill="#8b9ad9"></circle><circle r="5" cx="251.02" cy="509.78" fill="#8b9ad9"></circle><circle r="5" cx="233.7" cy="699.47" fill="#8b9ad9"></circle><circle r="5" cx="371.71" cy="531.97" fill="#8b9ad9"></circle><circle r="5" cx="532.61" cy="558.96" fill="#8b9ad9"></circle><circle r="5" cx="503.16" cy="642.61" fill="#8b9ad9"></circle><circle r="5" cx="709.56" cy="364.08" fill="#8b9ad9"></circle><circle r="5" cx="699.43" cy="681.66" fill="#8b9ad9"></circle><circle r="5" cx="822.16" cy="411.43" fill="#8b9ad9"></circle><circle r="5" cx="819.47" cy="642.95" fill="#8b9ad9"></circle><circle r="5" cx="937.54" cy="382.61" fill="#8b9ad9"></circle><circle r="5" cx="990.5" cy="505.93" fill="#8b9ad9"></circle><circle r="5" cx="975.61" cy="694.31" fill="#8b9ad9"></circle><circle r="5" cx="1127.45" cy="258.89" fill="#8b9ad9"></circle><circle r="5" cx="1094.29" cy="368.92" fill="#8b9ad9"></circle><circle r="5" cx="1115.18" cy="497.37" fill="#8b9ad9"></circle><circle r="5" cx="1114.18" cy="689.35" fill="#8b9ad9"></circle><circle r="5" cx="1305.01" cy="-53.74" fill="#8b9ad9"></circle><circle r="5" cx="1299.56" cy="89.52" fill="#8b9ad9"></circle><circle r="5" cx="1289.68" cy="678.6" fill="#8b9ad9"></circle><circle r="5" cx="1437.65" cy="-81.84" fill="#8b9ad9"></circle><circle r="5" cx="1461.57" cy="398.02" fill="#8b9ad9"></circle><circle r="5" cx="1462" cy="555.7" fill="#8b9ad9"></circle><circle r="5" cx="1390.49" cy="686.79" fill="#8b9ad9"></circle><circle r="5" cx="1599.14" cy="241.81" fill="#8b9ad9"></circle></g><defs><mask id="SvgjsMask1010"><rect width="1440" height="560" fill="#ffffff"></rect></mask><radialGradient id="SvgjsRadialGradient1011"><stop stop-color="#ffffff" offset="0.1"></stop><stop stop-color="#1735b3" offset="0.2"></stop><stop stop-color="rgba(23, 53, 179, 0)" offset="1"></stop></radialGradient></defs></svg>